<?xml version="1.0" encoding="iso-8859-1"?>
<!-- Generator: Adobe Illustrator 18.0.0, SVG Export Plug-In . SVG Version: 6.00 Build 0)  -->
<!DOCTYPE svg PUBLIC "-//W3C//DTD SVG 1.1//EN" "http://www.w3.org/Graphics/SVG/1.1/DTD/svg11.dtd">
<svg version="1.1" id="Capa_1" xmlns="http://www.w3.org/2000/svg" xmlns:xlink="http://www.w3.org/1999/xlink" x="0px" y="0px"
	 viewBox="0 0 162.227 162.227" style="enable-background:new 0 0 162.227 162.227;" xml:space="preserve">
<g>
	<path style="fill:#FDD633;" d="M81.113,48.265v65.697c18.142,0,32.848-14.707,32.848-32.849
		C113.961,62.972,99.255,48.265,81.113,48.265z"/>
	<path style="fill:#F4CA19;" d="M48.266,81.113c0,18.142,14.706,32.849,32.848,32.849V48.265
		C62.972,48.265,48.266,62.972,48.266,81.113z"/>
	
		<rect x="29.576" y="25.945" transform="matrix(0.5 0.866 -0.866 0.5 51.6498 -29.6894)" style="fill:#F4CA19;" width="43.92" height="7.88"/>
	
		<rect x="7.924" y="47.597" transform="matrix(0.866 0.5 -0.5 0.866 29.7724 -8.0378)" style="fill:#F4CA19;" width="43.92" height="7.88"/>
	<rect x="0" y="77.173" style="fill:#F4CA19;" width="43.921" height="7.881"/>
	
		<rect x="7.925" y="106.748" transform="matrix(0.866 -0.5 0.5 0.866 -51.3401 29.7717)" style="fill:#F4CA19;" width="43.921" height="7.881"/>
	
		<rect x="29.576" y="128.4" transform="matrix(0.5 -0.866 0.866 0.5 -88.8423 110.8023)" style="fill:#F4CA19;" width="43.92" height="7.881"/>
	
		<rect x="88.727" y="128.4" transform="matrix(-0.5 -0.866 0.866 -0.5 51.4222 294.3696)" style="fill:#FDD633;" width="43.922" height="7.881"/>
	
		<rect x="110.379" y="106.75" transform="matrix(-0.866 -0.5 0.5 -0.866 191.6055 272.7198)" style="fill:#FDD633;" width="43.921" height="7.88"/>
	<rect x="118.304" y="77.174" style="fill:#FDD633;" width="43.922" height="7.88"/>
	
		<rect x="110.38" y="47.597" transform="matrix(-0.866 0.5 -0.5 -0.866 272.7201 30.001)" style="fill:#FDD633;" width="43.921" height="7.881"/>
	
		<rect x="88.729" y="25.946" transform="matrix(-0.5 0.866 -0.866 -0.5 191.9164 -51.0307)" style="fill:#FDD633;" width="43.922" height="7.88"/>
	
		<rect x="57.665" y="30.643" transform="matrix(0.2588 0.9659 -0.9659 0.2588 84.2804 -40.6751)" style="fill:#F4CA19;" width="21.961" height="7.879"/>
	
		<rect x="36.07" y="43.11" transform="matrix(0.7071 0.7071 -0.7071 0.7071 47.0519 -19.4887)" style="fill:#F4CA19;" width="21.96" height="7.88"/>
	
		<rect x="30.642" y="57.665" transform="matrix(0.2586 -0.966 0.966 0.2586 -40.6714 84.2953)" style="fill:#F4CA19;" width="7.88" height="21.96"/>
	
		<rect x="30.643" y="82.6" transform="matrix(-0.2589 -0.9659 0.9659 -0.2589 -46.8554 151.2095)" style="fill:#F4CA19;" width="7.881" height="21.96"/>
	
		<rect x="43.11" y="104.194" transform="matrix(0.7071 0.7071 -0.7071 0.7071 95.2281 0.4667)" style="fill:#F4CA19;" width="7.881" height="21.961"/>
	
		<rect x="64.706" y="116.663" transform="matrix(-0.9659 -0.2589 0.2589 -0.9659 101.9097 268.7052)" style="fill:#F4CA19;" width="7.881" height="21.961"/>
	
		<rect x="82.602" y="123.702" transform="matrix(-0.2588 -0.9659 0.9659 -0.2588 -5.4927 251.0713)" style="fill:#FDD633;" width="21.961" height="7.882"/>
	
		<rect x="104.196" y="111.235" transform="matrix(-0.7071 -0.7071 0.7071 -0.7071 115.1749 278.058)" style="fill:#FDD633;" width="21.961" height="7.881"/>
	
		<rect x="123.703" y="82.6" transform="matrix(-0.2589 0.9659 -0.9659 -0.2589 251.0766 -5.4887)" style="fill:#FDD633;" width="7.881" height="21.961"/>
	
		<rect x="123.704" y="57.664" transform="matrix(0.2589 0.9659 -0.9659 0.2589 160.9058 -72.4184)" style="fill:#FDD633;" width="7.881" height="21.961"/>
	
		<rect x="111.236" y="36.07" transform="matrix(-0.7072 -0.707 0.707 -0.7072 163.3603 161.7557)" style="fill:#FDD633;" width="7.881" height="21.96"/>
	
		<rect x="89.641" y="23.601" transform="matrix(0.9659 0.2588 -0.2588 0.9659 12.1393 -23.0427)" style="fill:#FDD633;" width="7.882" height="21.961"/>
	<rect x="81.112" y="0" style="fill:#FDD633;" width="3.94" height="43.92"/>
	<rect x="77.174" y="0" style="fill:#F4CA19;" width="3.938" height="43.92"/>
	<rect x="81.113" y="118.305" style="fill:#FDD633;" width="3.939" height="43.921"/>
	<polygon style="fill:#F4CA19;" points="81.113,118.305 77.172,118.304 77.172,162.226 81.113,162.226 81.113,118.305 	"/>
</g>
<g>
</g>
<g>
</g>
<g>
</g>
<g>
</g>
<g>
</g>
<g>
</g>
<g>
</g>
<g>
</g>
<g>
</g>
<g>
</g>
<g>
</g>
<g>
</g>
<g>
</g>
<g>
</g>
<g>
</g>
</svg>
